<svg data-v-423bf9ae="" xmlns="http://www.w3.org/2000/svg" viewBox="0 0 463 90" class="iconLeftSlogan"><!----><!----><!----><g data-v-423bf9ae="" id="37f4063a-1c90-4e3d-a20a-a527b041beb0" fill="black" transform="matrix(3.3783786976630896,0,0,3.3783786976630896,154.2535184203252,-8.310812678800438)"><path d="M6.76 12.80L6.76 12.80L6.76 12.80Q6.26 12.99 5.98 12.99L5.98 12.99L5.98 12.99Q5.14 12.99 5.04 12.75L5.04 12.75L5.04 12.75Q3.64 9.16 3.19 8.12L3.19 8.12L3.19 8.12Q3.15 8.50 2.97 9.87L2.97 9.87L2.97 9.87Q2.59 12.56 2.59 14.34L2.59 14.34L2.59 14.34Q2.59 14.77 2.65 15.50L2.65 15.50L2.65 15.50Q1.67 15.50 1.32 15.27L1.32 15.27L1.32 15.27Q0.98 15.04 0.98 14.62L0.98 14.62L0.98 14.62Q0.98 14.48 1.45 10.81L1.45 10.81L1.45 10.81Q1.92 7.14 1.92 5.70L1.92 5.70L1.92 5.63L1.92 5.63Q1.51 4.97 1.06 4.55L1.06 4.55L1.06 4.55Q1.58 4.19 2.31 4.19L2.31 4.19L2.31 4.19Q3.23 4.19 3.74 5.05L3.74 5.05L3.74 5.05Q4.24 5.91 5.71 9.77L5.71 9.77L6.36 11.42L6.36 11.42Q6.44 11.28 6.61 11.05L6.61 11.05L6.61 11.05Q10.02 5.99 10.12 4.19L10.12 4.19L10.12 4.19Q10.12 4.20 10.46 4.22L10.46 4.22L10.46 4.22Q10.79 4.24 11.18 4.36L11.18 4.36L11.18 4.36Q11.56 4.48 11.74 4.73L11.74 4.73L11.74 4.73Q11.91 4.97 11.96 5.20L11.96 5.20L11.96 5.20Q12.00 5.43 12.00 5.99L12.00 5.99L12.00 5.99Q12.00 6.54 11.54 9.70L11.54 9.70L11.54 9.70Q11.07 12.87 11.07 14.13L11.07 14.13L11.07 14.13Q11.07 15.40 11.27 15.86L11.27 15.86L11.27 15.86Q10.08 15.55 9.65 15.04L9.65 15.04L9.65 15.04Q9.21 14.53 9.21 13.62L9.21 13.62L9.21 13.62Q9.21 13.09 9.50 11.00L9.50 11.00L9.50 11.00Q9.79 8.92 9.90 7.67L9.90 7.67L9.90 7.67Q9.34 8.64 8.31 10.32L8.31 10.32L8.31 10.32Q7.28 12.00 7.07 12.31L7.07 12.31L7.07 12.31Q6.86 12.63 6.76 12.80ZM20.06 8.32L20.06 8.32L20.06 8.32Q20.06 8.81 19.64 9.64L19.64 9.64L19.64 9.64Q19.22 10.47 18.62 11.48L18.62 11.48L18.62 11.48Q18.02 12.49 17.42 13.63L17.42 13.63L17.42 13.63Q16.81 14.77 16.39 16.21L16.39 16.21L16.39 16.21Q15.97 17.64 15.97 19.01L15.97 19.01L15.97 19.01Q15.97 19.64 16.07 20.22L16.07 20.22L16.07 20.22Q14.94 20.01 14.53 19.59L14.53 19.59L14.53 19.59Q14.13 19.18 14.13 18.62L14.13 18.62L14.13 18.62Q14.13 17.85 15.25 15.58L15.25 15.58L15.25 15.58Q15.04 14.71 14.73 12.86L14.73 12.86L14.73 12.86Q14.42 11.00 14.11 9.63L14.11 9.63L14.11 9.63Q13.79 8.26 13.38 7.59L13.38 7.59L13.38 7.59Q14.15 7.22 14.62 7.22L14.62 7.22L14.62 7.22Q15.08 7.22 15.32 7.43L15.32 7.43L15.32 7.43Q15.55 7.64 15.71 8.27L15.71 8.27L15.71 8.27Q15.88 8.89 15.95 9.30L15.95 9.30L15.95 9.30Q16.14 10.64 16.14 10.79L16.14 10.79L16.14 10.79Q16.14 10.95 16.25 12.05L16.25 12.05L16.25 12.05Q16.37 13.15 16.42 13.50L16.42 13.50L16.42 13.50Q18.91 8.67 18.91 7.04L18.91 7.04L18.91 7.04Q20.06 7.63 20.06 8.32ZM29.52 5.10L29.52 5.10L29.52 5.10Q28.88 5.10 28.46 5.48L28.46 5.48L28.46 5.48Q28.04 5.87 28.04 6.57L28.04 6.57L28.04 6.57Q28.04 7.27 28.40 7.82L28.40 7.82L28.40 7.82Q28.76 8.37 29.28 8.76L29.28 8.76L29.28 8.76Q29.81 9.14 30.43 9.59L30.43 9.59L30.43 9.59Q31.05 10.04 31.58 10.44L31.58 10.44L31.58 10.44Q32.10 10.84 32.46 11.42L32.46 11.42L32.46 11.42Q32.82 12.01 32.82 12.67L32.82 12.67L32.82 12.67Q32.82 13.97 31.75 14.88L31.75 14.88L31.75 14.88Q30.69 15.78 28.96 15.78L28.96 15.78L28.96 15.78Q27.23 15.78 26.22 15.04L26.22 15.04L26.22 15.04Q25.21 14.29 25.21 13.36L25.21 13.36L25.21 13.36Q25.21 12.42 25.77 11.89L25.77 11.89L25.77 11.89Q26.33 11.37 27.22 11.37L27.22 11.37L27.22 11.37Q27.47 11.37 27.69 11.42L27.69 11.42L27.69 11.42Q27.26 12.07 27.26 12.82L27.26 12.82L27.26 12.82Q27.26 13.57 27.72 14.11L27.72 14.11L27.72 14.11Q28.18 14.64 28.95 14.64L28.95 14.64L28.95 14.64Q29.71 14.64 30.23 14.25L30.23 14.25L30.23 14.25Q30.74 13.85 30.74 13.22L30.74 13.22L30.74 13.22Q30.74 12.60 30.39 12.12L30.39 12.12L30.39 12.12Q30.04 11.65 29.53 11.30L29.53 11.30L29.53 11.30Q29.01 10.96 28.39 10.52L28.39 10.52L28.39 10.52Q27.78 10.08 27.26 9.63L27.26 9.63L27.26 9.63Q26.74 9.18 26.39 8.49L26.39 8.49L26.39 8.49Q26.04 7.80 26.04 6.97L26.04 6.97L26.04 6.97Q26.04 5.64 27.01 4.85L27.01 4.85L27.01 4.85Q27.97 4.06 29.61 4.06L29.61 4.06L29.61 4.06Q31.25 4.06 32.09 4.79L32.09 4.79L32.09 4.79Q32.94 5.53 32.94 6.36L32.94 6.36L32.94 6.36Q32.94 7.20 32.41 7.76L32.41 7.76L32.41 7.76Q31.88 8.33 30.97 8.33L30.97 8.33L30.97 8.33Q30.66 8.33 30.37 8.27L30.37 8.27L30.37 8.27Q31.05 7.55 31.05 6.74L31.05 6.74L31.05 6.74Q31.05 5.94 30.60 5.52L30.60 5.52L30.60 5.52Q30.16 5.10 29.52 5.10ZM36.54 11.10L36.54 11.10Q37.00 9.52 37.98 8.44L37.98 8.44L37.98 8.44Q38.96 7.35 39.81 7.35L39.81 7.35L39.81 7.35Q40.66 7.35 41.01 7.86L41.01 7.86L41.01 7.86Q41.37 8.37 41.37 9.25L41.37 9.25L41.37 9.25Q41.37 10.12 41.10 11.70L41.10 11.70L41.10 11.70Q40.82 13.29 40.82 14.01L40.82 14.01L40.82 14.01Q40.82 14.73 41.01 15.06L41.01 15.06L41.01 15.06Q41.19 15.39 41.62 15.62L41.62 15.62L41.62 15.62Q41.44 15.64 41.10 15.64L41.10 15.64L41.10 15.64Q39.93 15.64 39.43 15.27L39.43 15.27L39.43 15.27Q38.93 14.91 38.93 14L38.93 14L38.93 14Q38.93 13.48 39.21 11.98L39.21 11.98L39.21 11.98Q39.49 10.47 39.49 9.73L39.49 9.73L39.49 9.73Q39.49 8.81 38.93 8.81L38.93 8.81L38.93 8.81Q38.60 8.81 38.19 9.18L38.19 9.18L38.19 9.18Q37.79 9.56 37.41 10.21L37.41 10.21L37.41 10.21Q37.04 10.86 36.79 11.89L36.79 11.89L36.79 11.89Q36.54 12.91 36.54 13.92L36.54 13.92L36.54 13.92Q36.54 14.94 36.62 15.43L36.62 15.43L36.62 15.43Q36.18 15.46 36.04 15.46L36.04 15.46L36.04 15.46Q35.24 15.46 34.89 15.18L34.89 15.18L34.89 15.18Q34.54 14.91 34.54 14.31L34.54 14.31L34.54 14.31Q34.54 13.71 34.78 12.01L34.78 12.01L34.78 12.01Q35.53 6.80 35.53 4.10L35.53 4.10L35.53 4.10Q35.53 2.88 35.36 2.46L35.36 2.46L35.36 2.46Q36.41 2.74 36.80 3.31L36.80 3.31L36.80 3.31Q37.18 3.88 37.18 4.91L37.18 4.91L37.18 4.91Q37.18 5.61 36.91 7.85L36.91 7.85L36.91 7.85Q36.64 10.09 36.54 11.10L36.54 11.10ZM47.38 8.41L47.38 8.41L47.38 8.41Q46.47 8.41 45.75 9.64L45.75 9.64L45.75 9.64Q45.04 10.86 45.04 12.08L45.04 12.08L45.04 12.08Q45.04 14.63 46.35 14.63L46.35 14.63L46.35 14.63Q47.29 14.63 47.88 13.41L47.88 13.41L47.88 13.41Q48.47 12.18 48.47 10.65L48.47 10.65L48.47 10.65Q48.47 8.41 47.38 8.41ZM48.24 7.39L48.24 7.39L48.24 7.39Q49.08 7.39 49.67 8.22L49.67 8.22L49.67 8.22Q50.26 9.04 50.26 10.43L50.26 10.43L50.26 10.43Q50.26 11.98 49.63 13.29L49.63 13.29L49.63 13.29Q48.93 14.76 47.64 15.32L47.64 15.32L47.64 15.32Q46.91 15.64 46.05 15.64L46.05 15.64L46.05 15.64Q44.83 15.64 43.93 14.69L43.93 14.69L43.93 14.69Q43.02 13.75 43.02 11.98L43.02 11.98L43.02 11.98Q43.02 10.21 43.89 8.86L43.89 8.86L43.89 8.86Q44.76 7.50 46.19 7.15L46.19 7.15L46.19 7.15Q46.34 7.15 46.47 7.25L46.47 7.25L46.47 7.25Q46.61 7.34 46.61 7.43L46.61 7.43L46.61 7.43Q45.19 8.41 44.91 10.16L44.91 10.16L44.91 10.16Q45.21 9.38 45.63 8.81L45.63 8.81L45.63 8.81Q46.06 8.23 46.52 7.94L46.52 7.94L46.52 7.94Q47.40 7.39 48.24 7.39ZM55.59 8.36L55.59 8.36L55.59 8.36Q56.48 7.69 57.34 7.69L57.34 7.69L57.34 7.69Q58.21 7.69 58.78 8.38L58.78 8.38L58.78 8.38Q59.35 9.07 59.35 10.39L59.35 10.39L59.35 10.39Q59.35 12.49 58.20 13.96L58.20 13.96L58.20 13.96Q57.05 15.43 55.44 15.43L55.44 15.43L55.44 15.43Q54.87 15.43 54.28 15.20L54.28 15.20L54.28 15.20Q55.65 14.88 56.46 13.43L56.46 13.43L56.46 13.43Q57.27 11.97 57.27 10.53L57.27 10.53L57.27 10.53Q57.27 9.86 57.03 9.44L57.03 9.44L57.03 9.44Q56.78 9.02 56.34 9.02L56.34 9.02L56.34 9.02Q55.48 9.02 54.82 10.05L54.82 10.05L54.82 10.05Q54.17 11.09 53.82 12.89L53.82 12.89L53.82 12.89Q53.47 14.69 53.47 16.64L53.47 16.64L53.47 16.64Q53.47 18.59 53.75 20.03L53.75 20.03L53.75 20.03Q52.60 19.99 52.05 19.66L52.05 19.66L52.05 19.66Q51.49 19.33 51.49 18.41L51.49 18.41L51.49 18.41Q51.49 18.07 51.92 14.86L51.92 14.86L51.92 14.86Q52.35 11.65 52.35 9.91L52.35 9.91L52.35 9.91Q52.35 8.18 52.14 6.99L52.14 6.99L52.14 6.99Q53.26 7.27 53.68 8.02L53.68 8.02L53.68 8.02Q54.11 8.78 54.11 10.23L54.11 10.23L54.11 10.23Q54.70 9.03 55.59 8.36ZM64.39 14.81L64.39 14.81L64.39 14.81Q64.39 14.55 65.20 12.82L65.20 12.82L65.20 12.82Q66.01 11.10 67.04 8.91L67.04 8.91L67.04 8.91Q68.07 6.72 68.43 5.73L68.43 5.73L68.68 5.04L68.68 5.04Q68.57 4.84 68.14 4.33L68.14 4.33L68.14 4.33Q68.64 4.16 69.01 4.16L69.01 4.16L69.01 4.16Q69.38 4.16 69.63 4.21L69.63 4.21L69.63 4.21Q69.87 4.27 70.06 4.40L70.06 4.40L70.06 4.40Q70.25 4.54 70.40 4.68L70.40 4.68L70.40 4.68Q70.55 4.82 70.67 5.09L70.67 5.09L70.67 5.09Q70.80 5.36 70.88 5.58L70.88 5.58L70.88 5.58Q70.97 5.80 71.07 6.19L71.07 6.19L71.07 6.19Q71.18 6.58 71.24 6.87L71.24 6.87L71.24 6.87Q71.30 7.15 71.41 7.67L71.41 7.67L71.41 7.67Q71.51 8.18 71.62 8.65L71.62 8.65L71.62 8.65Q71.74 9.13 72.02 10.46L72.02 10.46L72.02 10.46Q72.30 11.80 72.46 12.47L72.46 12.47L72.46 12.47Q72.62 13.13 72.92 13.96L72.92 13.96L72.92 13.96Q73.22 14.78 73.56 15.26L73.56 15.26L73.56 15.26Q72.74 15.65 72.24 15.65L72.24 15.65L72.24 15.65Q71.74 15.65 71.50 15.39L71.50 15.39L71.50 15.39Q71.26 15.13 71.09 14.61L71.09 14.61L71.09 14.61Q70.92 14.08 70.43 11.79L70.43 11.79L70.43 11.79Q70.11 12.07 69.38 12.10L69.38 12.10L66.99 12.18L66.99 12.18Q66.14 14.27 65.73 15.89L65.73 15.89L65.73 15.89Q64.39 15.41 64.39 14.81ZM69.33 6.90L69.33 6.90L69.33 6.90Q69.13 7.35 68.47 8.81L68.47 8.81L68.47 8.81Q67.80 10.28 67.44 11.14L67.44 11.14L70.31 11.14L70.31 11.14Q69.65 8.12 69.33 6.90ZM78.32 8.36L78.32 8.36L78.32 8.36Q79.21 7.69 80.08 7.69L80.08 7.69L80.08 7.69Q80.95 7.69 81.52 8.38L81.52 8.38L81.52 8.38Q82.08 9.07 82.08 10.39L82.08 10.39L82.08 10.39Q82.08 12.49 80.93 13.96L80.93 13.96L80.93 13.96Q79.79 15.43 78.18 15.43L78.18 15.43L78.18 15.43Q77.60 15.43 77.01 15.20L77.01 15.20L77.01 15.20Q78.39 14.88 79.20 13.43L79.20 13.43L79.20 13.43Q80.01 11.97 80.01 10.53L80.01 10.53L80.01 10.53Q80.01 9.86 79.77 9.44L79.77 9.44L79.77 9.44Q79.52 9.02 79.07 9.02L79.07 9.02L79.07 9.02Q78.22 9.02 77.56 10.05L77.56 10.05L77.56 10.05Q76.90 11.09 76.55 12.89L76.55 12.89L76.55 12.89Q76.20 14.69 76.20 16.64L76.20 16.64L76.20 16.64Q76.20 18.59 76.48 20.03L76.48 20.03L76.48 20.03Q75.33 19.99 74.78 19.66L74.78 19.66L74.78 19.66Q74.23 19.33 74.23 18.41L74.23 18.41L74.23 18.41Q74.23 18.07 74.66 14.86L74.66 14.86L74.66 14.86Q75.08 11.65 75.08 9.91L75.08 9.91L75.08 9.91Q75.08 8.18 74.87 6.99L74.87 6.99L74.87 6.99Q75.99 7.27 76.42 8.02L76.42 8.02L76.42 8.02Q76.85 8.78 76.85 10.23L76.85 10.23L76.85 10.23Q77.43 9.03 78.32 8.36ZM87.41 8.36L87.41 8.36L87.41 8.36Q88.30 7.69 89.17 7.69L89.17 7.69L89.17 7.69Q90.03 7.69 90.60 8.38L90.60 8.38L90.60 8.38Q91.17 9.07 91.17 10.39L91.17 10.39L91.17 10.39Q91.17 12.49 90.02 13.96L90.02 13.96L90.02 13.96Q88.87 15.43 87.26 15.43L87.26 15.43L87.26 15.43Q86.69 15.43 86.10 15.20L86.10 15.20L86.10 15.20Q87.47 14.88 88.28 13.43L88.28 13.43L88.28 13.43Q89.10 11.97 89.10 10.53L89.10 10.53L89.10 10.53Q89.10 9.86 88.85 9.44L88.85 9.44L88.85 9.44Q88.61 9.02 88.16 9.02L88.16 9.02L88.16 9.02Q87.30 9.02 86.65 10.05L86.65 10.05L86.65 10.05Q85.99 11.09 85.64 12.89L85.64 12.89L85.64 12.89Q85.29 14.69 85.29 16.64L85.29 16.64L85.29 16.64Q85.29 18.59 85.57 20.03L85.57 20.03L85.57 20.03Q84.42 19.99 83.87 19.66L83.87 19.66L83.87 19.66Q83.31 19.33 83.31 18.41L83.31 18.41L83.31 18.41Q83.31 18.07 83.74 14.86L83.74 14.86L83.74 14.86Q84.17 11.65 84.17 9.91L84.17 9.91L84.17 9.91Q84.17 8.18 83.96 6.99L83.96 6.99L83.96 6.99Q85.08 7.27 85.50 8.02L85.50 8.02L85.50 8.02Q85.93 8.78 85.93 10.23L85.93 10.23L85.93 10.23Q86.52 9.03 87.41 8.36Z"></path></g><!----><g data-v-423bf9ae="" id="3001ed65-93aa-4152-8ff9-15ff890737d8" transform="matrix(1.432960615958494,0,0,1.432960615958494,0.2178053145963048,-23.185414673131177)" stroke="none" fill="black"><path d="M30.924 75.171a31.232 31.232 0 0 0 15.738 4.232c12.449 0 23.205-7.244 28.285-17.748-5.836 3.205-12.42 6.047-19.428 8.336-8.446 2.76-16.821 4.514-24.595 5.18zM22.602 65.581c9.02 0 19.314-1.807 29.769-5.223 10.506-3.434 19.174-7.793 25.693-12.309V48c0-17.346-14.059-31.404-31.402-31.404C29.318 16.596 15.26 30.655 15.26 48a31.272 31.272 0 0 0 5.355 17.547c.651.02 1.311.034 1.987.034z"></path><path d="M95.563 32.462a8.55 8.55 0 0 0-.365-.91 8.392 8.392 0 0 0-.242-.945c-2.271-6.955-13.012-10.199-27.32-9.371a34.069 34.069 0 0 1 4.746 4.523c10.164-.15 18.148 1.928 22 6.064-1.238 10.408-18.164 23.502-41.195 31.029-23.029 7.525-44.421 6.951-51.568-.719.579-4.868 4.587-10.323 11.051-15.523.09-2.227.398-4.396.896-6.492C3.682 47.317-1.611 55.22.436 61.491c.104.313.229.613.367.908.063.32.141.637.24.949 3.537 10.82 27.561 12.676 53.662 4.148 26.102-8.528 44.393-24.214 40.858-35.034z"></path></g><!----><g data-v-423bf9ae="" id="d486c54e-bdce-4099-8ff0-5a970359a3e9" fill="black" transform="matrix(1.4046143552068122,0,0,1.4046143552068122,156.67941606570344,54.88720443996364)"><path d="M4.31 3.64L4.31 3.64Q6.92 3.64 7.80 5.68L7.80 5.68L7.20 6.17L7.20 6.17Q6.85 5.18 6.15 4.73L6.15 4.73L6.15 4.73Q5.46 4.28 4.33 4.28L4.33 4.28L4.33 4.28Q3.51 4.28 2.91 4.54L2.91 4.54L2.91 4.54Q2.31 4.79 2.00 5.22L2.00 5.22L2.00 5.22Q1.68 5.66 1.68 6.20L1.68 6.20L1.68 6.20Q1.68 6.73 1.95 7.08L1.95 7.08L1.95 7.08Q2.21 7.43 2.85 7.68L2.85 7.68L2.85 7.68Q3.49 7.92 4.61 8.12L4.61 8.12L4.61 8.12Q6.41 8.43 7.17 9.02L7.17 9.02L7.17 9.02Q7.92 9.60 7.92 10.64L7.92 10.64L7.92 10.64Q7.92 11.38 7.49 11.96L7.49 11.96L7.49 11.96Q7.06 12.53 6.27 12.84L6.27 12.84L6.27 12.84Q5.47 13.16 4.45 13.16L4.45 13.16L4.45 13.16Q3.00 13.16 2.00 12.58L2.00 12.58L2.00 12.58Q0.99 12.00 0.63 10.95L0.63 10.95L1.25 10.47L1.25 10.47Q1.53 11.47 2.37 11.99L2.37 11.99L2.37 11.99Q3.22 12.52 4.47 12.52L4.47 12.52L4.47 12.52Q5.67 12.52 6.43 12.03L6.43 12.03L6.43 12.03Q7.20 11.54 7.20 10.68L7.20 10.68L7.20 10.68Q7.20 9.94 6.57 9.51L6.57 9.51L6.57 9.51Q5.95 9.07 4.41 8.81L4.41 8.81L4.41 8.81Q3.11 8.58 2.35 8.26L2.35 8.26L2.35 8.26Q1.60 7.94 1.27 7.46L1.27 7.46L1.27 7.46Q0.94 6.99 0.94 6.27L0.94 6.27L0.94 6.27Q0.94 5.56 1.35 4.96L1.35 4.96L1.35 4.96Q1.76 4.35 2.53 4.00L2.53 4.00L2.53 4.00Q3.29 3.64 4.31 3.64L4.31 3.64ZM23.53 3.78L24.23 3.78L24.23 13.02L23.53 13.02L23.53 8.65L17.82 8.65L17.82 13.02L17.12 13.02L17.12 3.78L17.82 3.78L17.82 7.99L23.53 7.99L23.53 3.78ZM37.81 3.64L37.81 3.64Q39.12 3.64 40.07 4.22L40.07 4.22L40.07 4.22Q41.03 4.80 41.55 5.87L41.55 5.87L41.55 5.87Q42.07 6.94 42.07 8.40L42.07 8.40L42.07 8.40Q42.07 9.86 41.55 10.93L41.55 10.93L41.55 10.93Q41.03 12.00 40.07 12.58L40.07 12.58L40.07 12.58Q39.12 13.16 37.81 13.16L37.81 13.16L37.81 13.16Q36.51 13.16 35.55 12.58L35.55 12.58L35.55 12.58Q34.59 12.00 34.08 10.93L34.08 10.93L34.08 10.93Q33.56 9.86 33.56 8.40L33.56 8.40L33.56 8.40Q33.56 6.94 34.08 5.87L34.08 5.87L34.08 5.87Q34.59 4.80 35.55 4.22L35.55 4.22L35.55 4.22Q36.51 3.64 37.81 3.64L37.81 3.64ZM37.81 4.28L37.81 4.28Q36.74 4.28 35.95 4.78L35.95 4.78L35.95 4.78Q35.15 5.28 34.73 6.21L34.73 6.21L34.73 6.21Q34.30 7.14 34.30 8.40L34.30 8.40L34.30 8.40Q34.30 9.66 34.73 10.59L34.73 10.59L34.73 10.59Q35.15 11.52 35.95 12.02L35.95 12.02L35.95 12.02Q36.74 12.52 37.81 12.52L37.81 12.52L37.81 12.52Q38.89 12.52 39.69 12.02L39.69 12.02L39.69 12.02Q40.49 11.52 40.91 10.59L40.91 10.59L40.91 10.59Q41.34 9.66 41.34 8.40L41.34 8.40L41.34 8.40Q41.34 7.14 40.91 6.21L40.91 6.21L40.91 6.21Q40.49 5.28 39.69 4.78L39.69 4.78L39.69 4.78Q38.89 4.28 37.81 4.28L37.81 4.28ZM54.46 3.78L54.46 3.78Q55.90 3.78 56.75 4.50L56.75 4.50L56.75 4.50Q57.60 5.22 57.60 6.48L57.60 6.48L57.60 6.48Q57.60 7.74 56.75 8.47L56.75 8.47L56.75 8.47Q55.90 9.20 54.46 9.20L54.46 9.20L52.09 9.20L52.09 13.02L51.39 13.02L51.39 3.78L54.46 3.78ZM54.38 8.54L54.38 8.54Q55.58 8.54 56.22 8.01L56.22 8.01L56.22 8.01Q56.85 7.48 56.85 6.48L56.85 6.48L56.85 6.48Q56.85 5.50 56.22 4.96L56.22 4.96L56.22 4.96Q55.58 4.42 54.38 4.42L54.38 4.42L52.09 4.42L52.09 8.54L54.38 8.54ZM72.41 3.78L69.13 9.42L69.13 13.02L68.43 13.02L68.43 9.42L65.16 3.78L65.98 3.78L68.78 8.69L71.58 3.78L72.41 3.78ZM81.75 12.38L87.29 12.38L87.29 13.02L81.05 13.02L81.05 3.78L81.75 3.78L81.75 12.38ZM96.75 3.78L96.75 13.02L96.05 13.02L96.05 3.78L96.75 3.78ZM113.97 10.68L113.97 10.68Q113.58 11.86 112.61 12.51L112.61 12.51L112.61 12.51Q111.64 13.16 110.28 13.16L110.28 13.16L110.28 13.16Q109.02 13.16 108.07 12.58L108.07 12.58L108.07 12.58Q107.11 12.00 106.60 10.92L106.60 10.92L106.60 10.92Q106.08 9.84 106.08 8.40L106.08 8.40L106.08 8.40Q106.08 6.96 106.60 5.88L106.60 5.88L106.60 5.88Q107.11 4.80 108.07 4.22L108.07 4.22L108.07 4.22Q109.02 3.64 110.26 3.64L110.26 3.64L110.26 3.64Q113.04 3.64 113.85 5.92L113.85 5.92L113.16 6.24L113.16 6.24Q112.84 5.26 112.13 4.77L112.13 4.77L112.13 4.77Q111.43 4.28 110.31 4.28L110.31 4.28L110.31 4.28Q109.27 4.28 108.48 4.78L108.48 4.78L108.48 4.78Q107.69 5.28 107.25 6.21L107.25 6.21L107.25 6.21Q106.82 7.14 106.82 8.40L106.82 8.40L106.82 8.40Q106.82 9.66 107.25 10.59L107.25 10.59L107.25 10.59Q107.67 11.52 108.45 12.02L108.45 12.02L108.45 12.02Q109.23 12.52 110.28 12.52L110.28 12.52L110.28 12.52Q111.40 12.52 112.18 11.97L112.18 11.97L112.18 11.97Q112.97 11.42 113.27 10.42L113.27 10.42L113.97 10.68ZM123.73 3.78L123.73 13.02L123.03 13.02L123.03 3.78L123.73 3.78ZM137.31 3.64L137.31 3.64Q138.61 3.64 139.57 4.22L139.57 4.22L139.57 4.22Q140.53 4.80 141.05 5.87L141.05 5.87L141.05 5.87Q141.57 6.94 141.57 8.40L141.57 8.40L141.57 8.40Q141.57 9.86 141.05 10.93L141.05 10.93L141.05 10.93Q140.53 12.00 139.57 12.58L139.57 12.58L139.57 12.58Q138.61 13.16 137.31 13.16L137.31 13.16L137.31 13.16Q136.01 13.16 135.05 12.58L135.05 12.58L135.05 12.58Q134.09 12.00 133.57 10.93L133.57 10.93L133.57 10.93Q133.06 9.86 133.06 8.40L133.06 8.40L133.06 8.40Q133.06 6.94 133.57 5.87L133.57 5.87L133.57 5.87Q134.09 4.80 135.05 4.22L135.05 4.22L135.05 4.22Q136.01 3.64 137.31 3.64L137.31 3.64ZM137.31 4.28L137.31 4.28Q136.23 4.28 135.44 4.78L135.44 4.78L135.44 4.78Q134.65 5.28 134.22 6.21L134.22 6.21L134.22 6.21Q133.80 7.14 133.80 8.40L133.80 8.40L133.80 8.40Q133.80 9.66 134.22 10.59L134.22 10.59L134.22 10.59Q134.65 11.52 135.44 12.02L135.44 12.02L135.44 12.02Q136.23 12.52 137.31 12.52L137.31 12.52L137.31 12.52Q138.39 12.52 139.19 12.02L139.19 12.02L139.19 12.02Q139.99 11.52 140.41 10.59L140.41 10.59L140.41 10.59Q140.84 9.66 140.84 8.40L140.84 8.40L140.84 8.40Q140.84 7.14 140.41 6.21L140.41 6.21L140.41 6.21Q139.99 5.28 139.19 4.78L139.19 4.78L139.19 4.78Q138.39 4.28 137.31 4.28L137.31 4.28ZM157.91 3.78L157.91 9.65L157.91 9.65Q157.91 11.35 156.98 12.26L156.98 12.26L156.98 12.26Q156.06 13.16 154.35 13.16L154.35 13.16L154.35 13.16Q152.64 13.16 151.71 12.26L151.71 12.26L151.71 12.26Q150.78 11.35 150.78 9.65L150.78 9.65L150.78 3.78L151.48 3.78L151.48 9.51L151.48 9.51Q151.48 10.99 152.21 11.75L152.21 11.75L152.21 11.75Q152.94 12.52 154.35 12.52L154.35 12.52L154.35 12.52Q155.75 12.52 156.48 11.75L156.48 11.75L156.48 11.75Q157.21 10.99 157.21 9.51L157.21 9.51L157.21 3.78L157.91 3.78ZM170.56 3.64L170.56 3.64Q173.17 3.64 174.05 5.68L174.05 5.68L173.45 6.17L173.45 6.17Q173.10 5.18 172.40 4.73L172.40 4.73L172.40 4.73Q171.71 4.28 170.58 4.28L170.58 4.28L170.58 4.28Q169.76 4.28 169.16 4.54L169.16 4.54L169.16 4.54Q168.56 4.79 168.24 5.22L168.24 5.22L168.24 5.22Q167.93 5.66 167.93 6.20L167.93 6.20L167.93 6.20Q167.93 6.73 168.20 7.08L168.20 7.08L168.20 7.08Q168.46 7.43 169.10 7.68L169.10 7.68L169.10 7.68Q169.74 7.92 170.86 8.12L170.86 8.12L170.86 8.12Q172.66 8.43 173.42 9.02L173.42 9.02L173.42 9.02Q174.17 9.60 174.17 10.64L174.17 10.64L174.17 10.64Q174.17 11.38 173.74 11.96L173.74 11.96L173.74 11.96Q173.31 12.53 172.51 12.84L172.51 12.84L172.51 12.84Q171.72 13.16 170.70 13.16L170.70 13.16L170.70 13.16Q169.25 13.16 168.24 12.58L168.24 12.58L168.24 12.58Q167.24 12.00 166.88 10.95L166.88 10.95L167.50 10.47L167.50 10.47Q167.78 11.47 168.62 11.99L168.62 11.99L168.62 11.99Q169.47 12.52 170.72 12.52L170.72 12.52L170.72 12.52Q171.92 12.52 172.68 12.03L172.68 12.03L172.68 12.03Q173.45 11.54 173.45 10.68L173.45 10.68L173.45 10.68Q173.45 9.94 172.82 9.51L172.82 9.51L172.82 9.51Q172.20 9.07 170.66 8.81L170.66 8.81L170.66 8.81Q169.36 8.58 168.60 8.26L168.60 8.26L168.60 8.26Q167.85 7.94 167.52 7.46L167.52 7.46L167.52 7.46Q167.19 6.99 167.19 6.27L167.19 6.27L167.19 6.27Q167.19 5.56 167.60 4.96L167.60 4.96L167.60 4.96Q168.01 4.35 168.78 4.00L168.78 4.00L168.78 4.00Q169.54 3.64 170.56 3.64L170.56 3.64Z"></path></g></svg>